<svg width="557" height="120" viewBox="0 0 557 120" fill="none" xmlns="http://www.w3.org/2000/svg">
<path d="M15.8586 90.8553V57.6398H28.7138C48.8552 57.6398 61.4983 47.3569 61.4983 28.926C61.4983 10.495 48.8552 1.52588e-05 28.7138 1.52588e-05H0V90.6431H15.8586V90.8553ZM29.5691 44.3602H15.8519V13.2862H28.926C39.2088 13.2862 45.6398 18.6431 45.6398 28.7138C45.6398 38.7845 39.2088 44.3536 29.5691 44.3536V44.3602Z" fill="#052570"/>
<path d="M161.984 91.9293L176.125 53.1448L190.267 91.9293H199.694L226.054 27.8586H209.984L202.054 49.7171C199.482 56.3602 196.91 64.5017 194.768 70.0773C192.839 63.8652 190.485 56.7912 188.125 49.9359L180.408 28.2961H171.623C167.341 40.9392 161.122 58.9392 157.263 70.084C152.762 57.2287 147.405 42.0133 142.267 27.653H126.196L152.549 91.7238H161.977V91.9359L161.984 91.9293ZM257.984 92.3536C268.485 92.3536 277.058 89.7812 281.341 87.4276V73.9293C277.058 76.5017 267.842 79.2862 259.058 79.2862C247.489 79.2862 239.984 73.074 239.559 62.3602H283.489C283.489 61.2862 283.92 58.5017 283.92 55.505C283.92 39.8652 274.061 25.9359 254.994 25.9359C237.206 25.9359 223.495 40.0773 223.495 59.1514C223.707 78.6497 237.212 92.3669 257.997 92.3669L257.984 92.3536ZM269.128 53.3569H239.559C240.415 45.4276 245.771 38.3602 254.775 38.3602C264.421 38.3602 269.347 45.4343 269.128 53.3569ZM307.058 90.8552V63.6398C307.058 51.8519 314.556 40.926 325.27 40.926C327.199 40.926 328.697 41.3569 329.128 41.3569V26.5724C328.697 26.3602 327.199 26.1414 325.27 26.1414C316.485 26.1414 310.054 31.9293 306.196 39.6398C305.984 39.2088 306.196 37.2796 306.196 35.1381C306.196 32.7779 305.984 30.2122 305.984 27.6398H291.842V90.6431H307.058V90.8552ZM350.987 118.502V86.5724C350.987 83.1448 350.556 81.4276 350.556 81.4276H350.768C353.984 87.2155 361.913 92.3536 371.553 92.3536C387.623 92.3536 400.479 79.4983 400.479 59.1381C400.479 38.7779 387.623 25.9227 371.122 25.9227C361.482 25.9227 352.91 31.4917 349.906 37.9227H349.694C349.482 37.9227 350.125 36.2055 349.906 33.421L349.694 27.421H335.553V118.064H350.98V118.495L350.987 118.502ZM368.556 79.2862C360.196 79.2862 351.199 72.8552 351.199 59.3569C351.199 45.8586 360.196 39.4276 368.556 39.4276C378.839 39.4276 385.913 47.7878 385.913 59.3569C385.913 70.926 378.839 79.2862 368.556 79.2862ZM424.485 90.8552V0H409.058V90.6431H424.485V90.8552ZM452.556 92.3536C465.411 92.3536 472.054 82.0707 473.128 79.2796H473.341C473.341 79.2796 472.91 81.2088 473.128 83.9934L473.341 90.6365H487.27V50.7779C487.27 34.9193 478.054 26.1348 459.411 26.1348C448.697 26.1348 440.337 28.7072 436.697 30.6365V44.5657C440.768 41.9934 448.697 39.2088 457.058 39.2088C466.273 39.2088 472.054 42.4243 472.054 51.6398V54C447.623 50.5724 432.415 58.0707 432.415 73.7171C432.627 85.7171 441.418 92.3602 452.556 92.3602V92.3536ZM455.984 80.3602C450.627 80.3602 447.199 77.1448 447.199 72.2188C447.199 64.9326 454.485 60.2188 471.842 62.7912C471.842 71.7945 464.987 80.3602 455.984 80.3602ZM504.415 119.569C516.845 117.209 524.556 107.138 531.842 89.1381L556.485 27.8519H539.771L531.842 50.1348C529.489 56.347 524.987 70.2762 522.846 75.6331C520.061 67.2729 516.845 58.7072 513.842 50.1348L505.701 27.8519H488.987L514.697 90.4243C510.627 99.8519 505.913 106.714 496.91 106.714C493.482 106.714 490.91 106.071 489.623 105.64V118.926C490.91 119.357 493.694 120 496.697 120C499.27 120 501.842 119.788 504.415 119.569Z" fill="#052570"/>
<path d="M120.709 59.337C120.709 45.24 109.282 33.8121 95.1845 33.8121C81.0875 33.8121 69.6597 45.24 69.6597 59.337C69.6597 73.434 81.0875 84.8619 95.1845 84.8619C109.282 84.8619 120.709 73.434 120.709 59.337Z" fill="white"/>
<path d="M95.1379 25.8563C76.6473 25.8563 61.6572 40.8464 61.6572 59.337C61.6572 77.8276 76.6473 92.8177 95.1379 92.8177C113.628 92.8177 128.619 77.8276 128.619 59.337C128.619 40.8464 113.628 25.8563 95.1379 25.8563ZM96.8351 80.2674L93.5401 80.2806C91.3987 70.8265 83.834 63.3414 74.2672 61.3724V58.2696C84.139 56.2342 91.8959 48.3182 93.7324 38.4199H96.6362C98.4793 48.3248 106.216 56.2276 116.101 58.2762V61.3724C106.574 63.3414 98.9898 70.7735 96.8285 80.2674H96.8351Z" fill="#E13C5A"/>
</svg>
